<?xml version="1.0" encoding="UTF-8" standalone="no"?>
<svg
   xmlns:dc="http://purl.org/dc/elements/1.1/"
   xmlns:cc="http://creativecommons.org/ns#"
   xmlns:rdf="http://www.w3.org/1999/02/22-rdf-syntax-ns#"
   xmlns:svg="http://www.w3.org/2000/svg"
   xmlns="http://www.w3.org/2000/svg"
   xmlns:sodipodi="http://sodipodi.sourceforge.net/DTD/sodipodi-0.dtd"
   xmlns:inkscape="http://www.inkscape.org/namespaces/inkscape"
   version="1.1"
   width="300"
   height="300"
   id="svg174"
   sodipodi:docname="bq.svg"
   inkscape:version="1.0.1 (3bc2e813f5, 2020-09-07)"
   inkscape:export-filename="C:\Users\mailf\Documents\Coden\Projekts\Chess\images\moveiconHL.png"
   inkscape:export-xdpi="190"
   inkscape:export-ydpi="190">
  <metadata
     id="metadata180">
    <rdf:RDF>
      <cc:Work
         rdf:about="">
        <dc:format>image/svg+xml</dc:format>
        <dc:type
           rdf:resource="http://purl.org/dc/dcmitype/StillImage" />
        <dc:title></dc:title>
      </cc:Work>
    </rdf:RDF>
  </metadata>
  <defs
     id="defs178" />
  <sodipodi:namedview
     pagecolor="#ffffff"
     bordercolor="#666666"
     borderopacity="1"
     objecttolerance="10"
     gridtolerance="10"
     guidetolerance="10"
     inkscape:pageopacity="0"
     inkscape:pageshadow="2"
     inkscape:window-width="1858"
     inkscape:window-height="1057"
     id="namedview176"
     showgrid="false"
     fit-margin-top="0"
     fit-margin-left="0"
     fit-margin-right="0"
     fit-margin-bottom="0"
     inkscape:zoom="1.3601602"
     inkscape:cx="164.99583"
     inkscape:cy="82.162286"
     inkscape:window-x="54"
     inkscape:window-y="-8"
     inkscape:window-maximized="1"
     inkscape:current-layer="g120"
     inkscape:document-rotation="0" />
  <!-- white king //-->
  <!-- white queen //-->
  <!-- white bishop //-->
  <!-- white knight //-->
  <!-- white rook //-->
  <!-- white pawn //-->
  <!-- black king //-->
  <!-- black queen //-->
  <!-- black bishop //-->
  <!-- black knight //-->
  <!-- black rook //-->
  <!-- black pawn //-->
  <g
     style="fill:#a21e09;fill-opacity:1;fill-rule:evenodd;stroke:#6e1e0c;stroke-width:1.5;stroke-linecap:round;stroke-linejoin:round;stroke-miterlimit:4;stroke-dasharray:none;stroke-opacity:1"
     transform="matrix(7.0857822,0,0,7.0857822,-9.4300995,-11.886019)"
     id="g120">
    <g
       style="fill:#a21e09;fill-opacity:1;stroke:none;stroke-opacity:1"
       id="g104">
      <circle
         cx="6"
         cy="12"
         r="2.75"
         id="circle94"
         style="fill:#a21e09;fill-opacity:1;stroke:none;stroke-opacity:1" />
      <circle
         cx="14"
         cy="9"
         r="2.75"
         id="circle96"
         style="fill:#a21e09;fill-opacity:1;stroke:none;stroke-opacity:1" />
      <circle
         cx="22.5"
         cy="8"
         r="2.75"
         id="circle98"
         style="fill:#a21e09;fill-opacity:1;stroke:none;stroke-opacity:1" />
      <circle
         cx="31"
         cy="9"
         r="2.75"
         id="circle100"
         style="fill:#a21e09;fill-opacity:1;stroke:none;stroke-opacity:1" />
      <circle
         cx="39"
         cy="12"
         r="2.75"
         id="circle102"
         style="fill:#a21e09;fill-opacity:1;stroke:none;stroke-opacity:1" />
    </g>
    <path
       d="m 9,26 c 8.5,-1.5 21,-1.5 27,0 L 38.5,13.5 31,25 30.7,10.9 25.5,24.5 22.5,10 19.5,24.5 14.3,10.9 14,25 6.5,13.5 Z"
       style="fill:#a21e09;fill-opacity:1;stroke:#a21e09;stroke-linecap:butt;stroke-opacity:1"
       id="path106" />
    <path
       d="m 9,26 c 0,2 1.5,2 2.5,4 1,1.5 1,1 0.5,3.5 -1.5,1 -1.5,2.5 -1.5,2.5 -1.5,1.5 0.5,2.5 0.5,2.5 6.5,1 16.5,1 23,0 0,0 1.5,-1 0,-2.5 0,0 0.5,-1.5 -1,-2.5 -0.5,-2.5 -0.5,-2 0.5,-3.5 1,-2 2.5,-2 2.5,-4 -8.5,-1.5 -18.5,-1.5 -27,0 z"
       style="fill:#a21e09;fill-opacity:1;stroke:#a21e09;stroke-linecap:butt;stroke-opacity:1"
       id="path108" />
    <path
       d="m 11,38.5 a 35,35 1 0 0 23,0"
       style="fill:#a21e09;fill-opacity:1;stroke:#a21e09;stroke-linecap:butt;stroke-opacity:1"
       id="path110" />
    <path
       d="m 11,29 a 35,35 1 0 1 23,0"
       style="fill:#a21e09;fill-opacity:1;stroke:#6e1e0c;stroke-opacity:1"
       id="path112" />
    <path
       d="m 12.5,31.5 h 20"
       style="fill:#a21e09;fill-opacity:1;stroke:#6e1e0c;stroke-opacity:1"
       id="path114" />
    <path
       d="m 11.5,34.5 a 35,35 1 0 0 22,0"
       style="fill:#a21e09;fill-opacity:1;stroke:#6e1e0c;stroke-opacity:1"
       id="path116" />
    <path
       d="m 10.5,37.5 a 35,35 1 0 0 24,0"
       style="fill:#a21e09;fill-opacity:1;stroke:#6e1e0c;stroke-opacity:1"
       id="path118" />
  </g>
</svg>
